<?xml version="1.0" encoding="utf-8"?><svg xmlns="http://www.w3.org/2000/svg" xmlns:xlink="http://www.w3.org/1999/xlink"><symbol viewBox="0 0 41.905 12.406" id="Logo" xmlns="http://www.w3.org/2000/svg"><path style="line-height:normal;font-variant-ligatures:normal;font-variant-position:normal;font-variant-caps:normal;font-variant-numeric:normal;font-variant-alternates:normal;font-variant-east-asian:normal;font-feature-settings:normal;font-variation-settings:normal;text-indent:0;text-align:start;text-decoration-line:none;text-decoration-style:solid;text-decoration-color:#000;text-transform:none;text-orientation:mixed;white-space:normal;shape-padding:0;shape-margin:0;inline-size:0;isolation:auto;mix-blend-mode:normal;solid-color:#000;solid-opacity:1" d="M4.436 0A4.438 4.438 0 001.3 7.573l.002.001.001.002c.193.18.404.375.654.539.327.522.46 1.344.562 1.885a.768.768 0 00-.667.759.77.77 0 00.77.768h.088v.188c0 .38.311.691.692.691h1.78c.381 0 .692-.31.692-.691v-.188h.15a.77.77 0 00.77-.768.768.768 0 00-.718-.764c.203-1.461.652-1.788.715-1.822h.002l.002-.002c.334-.196.484-.295.78-.6A4.438 4.438 0 004.436 0zm0 .265a4.17 4.17 0 012.95 7.12v.002h-.002c-.286.294-.392.361-.725.556-.176.098-.634.525-.843 2.018-.249.01-.464.015-.673.018V7.124h.626c.308-.002.54-.105.683-.272a.77.77 0 00.165-.592c-.047-.41-.367-.82-.836-.827-.007-.001-.217-.036-.441.058-.23.095-.46.35-.461.824v.544h-.787V6.32c-.025-.535-.281-.797-.533-.879a.854.854 0 00-.476-.011.713.713 0 00-.475.305 1.016 1.016 0 00-.18.55.846.846 0 00.173.558.79.79 0 00.598.28h.628v2.86c-.32-.002-.608-.006-1.048-.001-.167-.698-.219-1.533-.675-2.087l-.002-.001a4.608 4.608 0 01-.616-.508A4.17 4.17 0 014.436.265zM3.253 5.668a.598.598 0 01.224.025c.161.052.328.176.35.637v.529h-.615c-.202-.01-.323-.081-.404-.181a.587.587 0 01-.115-.385.765.765 0 01.131-.406c.136-.163.263-.193.429-.219zm2.398.023c.36-.003.663.312.703.599a.506.506 0 01-.103.39c-.087.102-.232.178-.482.179h-.626v-.543c.002-.397.15-.519.3-.581a.616.616 0 01.208-.044zm-1.56 1.433h.788V9.98a64.34 64.34 0 01-.787.001zm-1.471 3.13h3.403a.5.5 0 01.505.505.5.5 0 01-.505.504H2.62a.5.5 0 01-.504-.504.5.5 0 01.504-.504zm.354 1.273h2.634v.188a.423.423 0 01-.426.426H3.4a.423.423 0 01-.427-.426z" color="#000" font-weight="400" font-family="sans-serif" overflow="visible" fill="#da6f5d" fill-rule="evenodd"/><g style="line-height:1.25"><path d="M15.618 3.71V1.684h-.255c-.069.252-.12.317-.273.317-.077 0-.179-.028-.358-.093-.391-.159-.664-.215-.996-.215-1.158 0-1.865.72-1.865 1.906 0 .813.443 1.402 1.456 1.935l.57.299c.75.392.955.635.955 1.13 0 .645-.418 1.057-1.073 1.057-.503 0-.92-.234-1.244-.692-.23-.346-.349-.654-.493-1.308h-.247v2.308h.247c.05-.243.119-.318.255-.318.068 0 .162.028.35.094.416.159.731.224 1.106.224 1.26 0 2.112-.794 2.112-1.972 0-.7-.383-1.402-.937-1.7l-1.252-.683c-.69-.374-.877-.607-.877-1.056 0-.58.358-.934.937-.934.383 0 .74.177 1.047.523.29.327.426.598.597 1.206zm8.456 4.206c-.647-.084-.733-.178-.75-.86v-4.13c.017-.692.137-.823.75-.86v-.234h-2.146l-1.703 4.411-1.703-4.41h-2.155v.233c.613.047.758.177.758.663v4.44c-.008.57-.119.681-.775.747v.233h1.993v-.233c-.69-.047-.852-.234-.86-.925V2.599l2.146 5.55h.23l2.146-5.69v4.756c-.017.533-.128.645-.758.7v.234h2.827zm6.216 0c-.375 0-.468-.131-.928-1.3l-1.9-4.915h-.238l-1.89 5.121c-.324.879-.426 1.01-.834 1.094v.233h1.728v-.233c-.51-.038-.698-.14-.698-.383 0-.122.06-.346.247-.85l.128-.374h1.916c.29.738.391 1.065.391 1.27 0 .206-.11.29-.408.309-.043.01-.154.018-.273.028v.233h2.759zm-4.258-1.972l.8-2.27.86 2.27zM36.66 7.916c-.154 0-.264-.047-.35-.178-1.081-.614-.626-2.058-1.711-2.663.493-.202.715-.29.954-.533.246-.252.383-.626.383-1.046 0-1.084-.843-1.664-2.402-1.664h-2.742v.234c.614.037.733.168.75.86v4.13c-.017.692-.094.785-.75.86v.233h2.879v-.233c-.648-.084-.733-.187-.75-.86V5.224h.23c1.16.766.577 1.906 1.763 2.925h1.746zm-3.74-5.374c0-.056.034-.196.06-.252.051-.093.187-.14.4-.14.784 0 1.099.402 1.099 1.383 0 .598-.128.963-.4 1.159-.222.159-.512.224-1.159.233zm7.938 5.374c-.724-.038-.818-.14-.835-.86V2.131c1.048.038 1.49.468 1.635 1.58h.247l-.017-1.879h-5.11l-.025 1.879H37c.145-1.112.588-1.542 1.644-1.58v4.925c-.017.71-.111.804-.826.86v.233h3.04z" style="-inkscape-font-specification:'Nimbus Roman, Bold'" aria-label="SMART" font-weight="700" font-size="33.162" font-family="Nimbus Roman" fill="#fff" stroke-width=".829"/></g><path d="M12.85 10.861v.126h-1.18q.017.265.16.404.143.138.398.138.148 0 .286-.036.14-.036.276-.109v.243q-.138.058-.283.09-.145.03-.294.03-.374 0-.593-.218-.218-.217-.218-.588 0-.384.207-.608.208-.226.56-.226.314 0 .497.203.184.202.184.551zm-.256-.075q-.003-.21-.119-.336-.114-.126-.304-.126-.215 0-.345.121-.128.122-.147.342zm1.673-.596v.243q-.109-.056-.226-.084-.117-.028-.242-.028-.192 0-.288.059-.095.059-.095.176 0 .089.069.14.068.05.275.097l.087.02q.274.058.388.165.116.106.116.297 0 .218-.173.345-.172.127-.473.127-.125 0-.262-.025-.135-.024-.286-.073v-.265q.142.074.28.112.138.036.274.036.181 0 .279-.061.097-.063.097-.176 0-.105-.07-.16-.07-.056-.31-.108l-.088-.02q-.239-.051-.345-.154-.106-.105-.106-.286 0-.22.156-.34.157-.12.444-.12.142 0 .268.02.125.021.231.063zm1.488 0v.243q-.108-.056-.226-.084-.117-.028-.242-.028-.191 0-.288.059-.094.059-.094.176 0 .089.068.14.068.05.275.097l.088.02q.273.058.387.165.116.106.116.297 0 .218-.173.345-.171.127-.473.127-.125 0-.262-.025-.135-.024-.286-.073v-.265q.142.074.28.112.139.036.274.036.181 0 .279-.061.097-.063.097-.176 0-.105-.07-.16-.07-.056-.309-.108l-.09-.02q-.238-.051-.344-.154-.106-.105-.106-.286 0-.22.157-.34.156-.12.443-.12.142 0 .268.02.125.021.231.063zm1.203.731q-.311 0-.431.071t-.12.243q0 .137.089.217.09.08.245.08.214 0 .342-.15.13-.153.13-.404v-.057zm.511-.106v.891h-.256v-.237q-.088.142-.22.21-.13.068-.32.068-.24 0-.382-.134-.14-.135-.14-.361 0-.264.175-.398.177-.134.527-.134h.36v-.025q0-.177-.117-.273-.116-.098-.327-.098-.134 0-.26.032-.127.032-.245.096v-.237q.141-.054.274-.08.132-.028.258-.028.339 0 .506.175.167.176.167.533zm1.179 1.036q-.109.28-.212.364-.103.085-.276.085h-.205v-.214h.15q.106 0 .165-.05.059-.05.13-.238l.046-.117-.632-1.537h.272l.488 1.222.488-1.222h.272zm1.799-1.707h.257l.32 1.22.32-1.22h.303l.32 1.22.32-1.22h.256l-.408 1.562h-.303l-.336-1.28-.338 1.28h-.302zm3.391.24q-.043-.025-.095-.036-.05-.013-.112-.013-.217 0-.334.143-.116.14-.116.405v.823h-.258v-1.562h.258v.243q.08-.142.21-.21.13-.07.316-.07.026 0 .058.004.032.003.071.01zm.269-.24h.257v1.562h-.257zm0-.608h.257v.325h-.257zm1.047.164v.444h.529v.2h-.529v.848q0 .19.052.245.053.055.213.055h.264v.214h-.264q-.297 0-.41-.11-.113-.111-.113-.404v-.848h-.188v-.2h.188v-.443zm.866.444h.257v1.562h-.257zm0-.608h.257v.325h-.257zm2.093 1.227v.943h-.257v-.934q0-.222-.087-.332-.086-.11-.259-.11-.208 0-.328.132-.12.133-.12.361v.883h-.258v-1.562h.258v.243q.092-.141.217-.21.125-.07.288-.07.27 0 .408.167.138.166.138.49zm1.539.144q0-.279-.115-.432-.115-.154-.323-.154-.206 0-.322.154-.114.153-.114.432 0 .278.114.431.116.154.322.154.208 0 .323-.154.115-.153.115-.43zm.257.605q0 .4-.177.593-.177.195-.543.195-.135 0-.255-.02t-.233-.062v-.25q.113.062.223.091.11.03.225.03.252 0 .378-.133.125-.131.125-.398v-.126q-.08.138-.203.206-.124.068-.297.068-.288 0-.463-.219-.176-.219-.176-.58 0-.362.176-.581.175-.22.463-.22.173 0 .297.069.124.068.203.206v-.237h.257zm2.432-1.322v.243q-.108-.056-.226-.084-.117-.028-.242-.028-.191 0-.288.059-.094.059-.094.176 0 .089.068.14.068.05.275.097l.088.02q.273.058.387.165.116.106.116.297 0 .218-.173.345-.171.127-.473.127-.125 0-.262-.025-.135-.024-.286-.073v-.265q.142.074.28.112.139.036.274.036.181 0 .279-.061.097-.063.097-.176 0-.105-.07-.16-.07-.056-.309-.108l-.09-.02q-.238-.051-.344-.154-.106-.105-.106-.286 0-.22.157-.34.156-.12.443-.12.142 0 .268.02.125.021.231.063zm1.829.671v.126h-1.18q.017.265.159.404.144.138.399.138.148 0 .286-.036.14-.036.276-.109v.243q-.138.058-.283.09-.145.03-.295.03-.373 0-.592-.218-.218-.217-.218-.588 0-.384.207-.608.207-.226.559-.226.315 0 .498.203.184.202.184.551zm-.257-.075q-.003-.21-.118-.336-.115-.126-.304-.126-.215 0-.345.121-.128.122-.148.342zm1.583-.402q-.043-.025-.095-.036-.05-.013-.111-.013-.218 0-.335.143-.116.14-.116.405v.823h-.258v-1.562h.258v.243q.081-.142.21-.21.13-.07.316-.07.027 0 .059.004.032.003.07.01zm.085-.24h.272l.488 1.311.489-1.31h.272l-.586 1.561h-.349zm1.875 0h.256v1.562h-.256zm0-.608h.256v.325h-.256zm1.918.668v.24q-.11-.06-.22-.09-.108-.03-.22-.03-.25 0-.388.16-.138.157-.138.443 0 .286.138.445.139.157.388.157.112 0 .22-.03.11-.03.22-.09v.237q-.108.05-.224.076-.114.025-.244.025-.353 0-.56-.222-.208-.222-.208-.598 0-.382.209-.601.21-.22.576-.22.119 0 .232.026.113.023.219.072zm1.782.657v.126h-1.18q.017.265.16.404.143.138.398.138.148 0 .286-.036.14-.036.276-.109v.243q-.138.058-.283.09-.145.03-.294.03-.374 0-.593-.218-.218-.217-.218-.588 0-.384.207-.608.208-.226.559-.226.315 0 .498.203.184.202.184.551zm-.257-.075q-.002-.21-.118-.336-.115-.126-.304-.126-.215 0-.345.121-.128.122-.148.342z" aria-label="essay writing service" font-weight="400" font-size="10.796" font-family="sans-serif" fill="#fff" stroke-width=".27"/></symbol><symbol viewBox="0 0 8.811 11.889" id="arrow-down" xmlns="http://www.w3.org/2000/svg"><path style="line-height:normal;font-variant-ligatures:normal;font-variant-position:normal;font-variant-caps:normal;font-variant-numeric:normal;font-variant-alternates:normal;font-variant-east-asian:normal;font-feature-settings:normal;font-variation-settings:normal;text-indent:0;text-align:start;text-decoration-line:none;text-decoration-style:solid;text-decoration-color:#000;text-transform:none;text-orientation:mixed;white-space:normal;shape-padding:0;shape-margin:0;inline-size:0;isolation:auto;mix-blend-mode:normal;solid-color:#000;solid-opacity:1" d="M3.93 0a.265.265 0 00-.264.265v8.753L1.349 6.594l.017.019a.735.735 0 00-.57-.287.785.785 0 00-.53.218.825.825 0 00-.262.517.827.827 0 00.223.637l4.114 4.114c.103.103.27.103.374 0L8.597 7.93l.003-.003a.734.734 0 00.21-.557.762.762 0 00-.225-.479.724.724 0 00-.48-.22.703.703 0 00-.545.245l.013-.013L5.4 9.045V.265A.265.265 0 005.135 0zm.265.53h.675v9.148c0 .235.283.353.45.189L7.944 7.28a.315.315 0 00.012-.013c.058-.066.09-.068.126-.067a.208.208 0 01.128.064.247.247 0 01.071.146c.004.047-.003.088-.062.15l-3.69 3.69L.612 7.336v-.001C.536 7.246.523 7.18.53 7.116a.308.308 0 01.098-.184c.128-.107.247-.058.323.01l.016.018 2.773 2.9a.265.265 0 00.455-.182z" color="#000" font-weight="400" font-family="sans-serif" overflow="visible" fill="#fff"/></symbol><symbol viewBox="0 0 8.389 5.541" id="arrow-left" xmlns="http://www.w3.org/2000/svg"><path style="line-height:normal;font-variant-ligatures:normal;font-variant-position:normal;font-variant-caps:normal;font-variant-numeric:normal;font-variant-alternates:normal;font-variant-east-asian:normal;font-feature-settings:normal;font-variation-settings:normal;text-indent:0;text-align:start;text-decoration-line:none;text-decoration-style:solid;text-decoration-color:#000;text-transform:none;text-orientation:mixed;white-space:normal;shape-padding:0;shape-margin:0;inline-size:0;isolation:auto;mix-blend-mode:normal;solid-color:#000;solid-opacity:1" d="M2.724 0L.038 2.685a.132.132 0 00.001.187l2.669 2.669.187-.187L.45 2.91h7.94v-.264H.452L2.91.187z" color="#000" font-weight="400" font-family="sans-serif" overflow="visible"/></symbol><symbol viewBox="0 0 8.389 5.541" id="arrow-right" xmlns="http://www.w3.org/2000/svg"><path style="line-height:normal;font-variant-ligatures:normal;font-variant-position:normal;font-variant-caps:normal;font-variant-numeric:normal;font-variant-alternates:normal;font-variant-east-asian:normal;font-feature-settings:normal;font-variation-settings:normal;text-indent:0;text-align:start;text-decoration-line:none;text-decoration-style:solid;text-decoration-color:#000;text-transform:none;text-orientation:mixed;white-space:normal;shape-padding:0;shape-margin:0;inline-size:0;isolation:auto;mix-blend-mode:normal;solid-color:#000;solid-opacity:1" d="M5.666 0L8.35 2.685a.132.132 0 010 .187L5.68 5.541l-.186-.187L7.938 2.91H0v-.264h7.937L5.48.187z" color="#000" font-weight="400" font-family="sans-serif" overflow="visible"/></symbol></svg>