<?xml version="1.0" encoding="UTF-8" standalone="no"?>
<svg
   xmlns:dc="http://purl.org/dc/elements/1.1/"
   xmlns:cc="http://creativecommons.org/ns#"
   xmlns:rdf="http://www.w3.org/1999/02/22-rdf-syntax-ns#"
   xmlns:svg="http://www.w3.org/2000/svg"
   xmlns="http://www.w3.org/2000/svg"
   width="8.8110075mm"
   height="11.889137mm"
   viewBox="0 0 8.8110075 11.889137"
   version="1.1"
   id="svg991">
  <defs
     id="defs985" />
  <metadata
     id="metadata988">
    <rdf:RDF>
      <cc:Work
         rdf:about="">
        <dc:format>image/svg+xml</dc:format>
        <dc:type
           rdf:resource="http://purl.org/dc/dcmitype/StillImage" />
        <dc:title></dc:title>
      </cc:Work>
    </rdf:RDF>
  </metadata>
  <g
     id="layer1"
     transform="translate(-27.337362,-34.965376)">
    <path
       style="color:#000000;font-style:normal;font-variant:normal;font-weight:normal;font-stretch:normal;font-size:medium;line-height:normal;font-family:sans-serif;font-variant-ligatures:normal;font-variant-position:normal;font-variant-caps:normal;font-variant-numeric:normal;font-variant-alternates:normal;font-variant-east-asian:normal;font-feature-settings:normal;font-variation-settings:normal;text-indent:0;text-align:start;text-decoration:none;text-decoration-line:none;text-decoration-style:solid;text-decoration-color:#000000;letter-spacing:normal;word-spacing:normal;text-transform:none;writing-mode:lr-tb;direction:ltr;text-orientation:mixed;dominant-baseline:auto;baseline-shift:baseline;text-anchor:start;white-space:normal;shape-padding:0;shape-margin:0;inline-size:0;clip-rule:nonzero;display:inline;overflow:visible;visibility:visible;isolation:auto;mix-blend-mode:normal;color-interpolation:sRGB;color-interpolation-filters:linearRGB;solid-color:#000000;solid-opacity:1;vector-effect:none;fill:#ffffff;fill-opacity:1;fill-rule:nonzero;stroke:none;stroke-width:0.264583;stroke-linecap:butt;stroke-linejoin:round;stroke-miterlimit:4;stroke-dasharray:none;stroke-dashoffset:0;stroke-opacity:1;color-rendering:auto;image-rendering:auto;shape-rendering:auto;text-rendering:auto;enable-background:accumulate;stop-color:#000000"
       d="m 31.267498,34.965376 c -0.14613,1.6e-5 -0.264557,0.118465 -0.264584,0.264584 v 8.752953 l -2.316136,-2.423109 0.01614,0.0186 c -0.148273,-0.187651 -0.365522,-0.288071 -0.569992,-0.286806 -0.20447,0.0013 -0.388699,0.08792 -0.528664,0.218075 -0.139938,0.130154 -0.241221,0.309525 -0.263022,0.516766 -0.0217,0.207237 0.04752,0.437594 0.211349,0.62425 0.0037,0.0043 0.0077,0.0084 0.01191,0.01241 l 4.113953,4.113958 c 0.10332,0.103275 0.270802,0.103275 0.374121,0 l 3.88194,-3.881416 c 0,-0.0013 0.0026,-0.0024 0.0032,-0.0036 0.153618,-0.159509 0.223282,-0.368361 0.208783,-0.557072 -0.01455,-0.188712 -0.100383,-0.354552 -0.223758,-0.478523 -0.123375,-0.123973 -0.290301,-0.211481 -0.481118,-0.219625 -0.190791,-0.0081 -0.396822,0.07823 -0.544142,0.24443 l 0.01243,-0.01291 -2.172996,2.142506 V 35.22996 c -5.1e-5,-0.146119 -0.118478,-0.264568 -0.264608,-0.264584 z m 0.264583,0.529167 h 0.675428 v 9.148794 c 8e-5,0.234611 0.282787,0.353089 0.450109,0.188619 l 2.623609,-2.586921 c 0.0042,-0.0042 0.0085,-0.0085 0.01243,-0.01291 0.058,-0.06543 0.08924,-0.06822 0.125598,-0.06666 0.03635,0.0016 0.08676,0.02249 0.128138,0.06408 0.04141,0.04159 0.06768,0.09845 0.07133,0.14573 0.0037,0.04728 -0.0029,0.08788 -0.06202,0.149344 l -3.691255,3.691247 -3.915013,-3.914489 v -0.0011 c -0.07744,-0.08873 -0.08948,-0.154035 -0.08268,-0.21859 0.0069,-0.06487 0.04339,-0.134022 0.09766,-0.184484 0.127503,-0.106751 0.247068,-0.05751 0.322977,0.0093 0.005,0.0066 0.01032,0.01299 0.01614,0.01913 l 2.772436,2.900598 c 0.164941,0.172323 0.455745,0.0556 0.455771,-0.182936 z"
       id="path1352" />
  </g>
</svg>
