<?xml version="1.0" encoding="UTF-8" standalone="no"?>
<svg
   xmlns:dc="http://purl.org/dc/elements/1.1/"
   xmlns:cc="http://creativecommons.org/ns#"
   xmlns:rdf="http://www.w3.org/1999/02/22-rdf-syntax-ns#"
   xmlns:svg="http://www.w3.org/2000/svg"
   xmlns="http://www.w3.org/2000/svg"
   width="41.90501mm"
   height="12.405976mm"
   viewBox="0 0 41.90501 12.405976"
   version="1.1"
   id="svg991">
  <defs
     id="defs985" />
  <metadata
     id="metadata988">
    <rdf:RDF>
      <cc:Work
         rdf:about="">
        <dc:format>image/svg+xml</dc:format>
        <dc:type
           rdf:resource="http://purl.org/dc/dcmitype/StillImage" />
        <dc:title></dc:title>
      </cc:Work>
    </rdf:RDF>
  </metadata>
  <g
     id="layer1"
     transform="translate(-21.94262,-35.815123)">
    <path
       id="rect16"
       style="color:#000000;font-style:normal;font-variant:normal;font-weight:normal;font-stretch:normal;font-size:medium;line-height:normal;font-family:sans-serif;font-variant-ligatures:normal;font-variant-position:normal;font-variant-caps:normal;font-variant-numeric:normal;font-variant-alternates:normal;font-variant-east-asian:normal;font-feature-settings:normal;font-variation-settings:normal;text-indent:0;text-align:start;text-decoration:none;text-decoration-line:none;text-decoration-style:solid;text-decoration-color:#000000;letter-spacing:normal;word-spacing:normal;text-transform:none;writing-mode:lr-tb;direction:ltr;text-orientation:mixed;dominant-baseline:auto;baseline-shift:baseline;text-anchor:start;white-space:normal;shape-padding:0;shape-margin:0;inline-size:0;clip-rule:nonzero;display:inline;overflow:visible;visibility:visible;isolation:auto;mix-blend-mode:normal;color-interpolation:sRGB;color-interpolation-filters:linearRGB;solid-color:#000000;solid-opacity:1;vector-effect:none;fill:#da6f5d;fill-opacity:1;fill-rule:evenodd;stroke:none;stroke-width:0.264583;stroke-linecap:butt;stroke-linejoin:miter;stroke-miterlimit:4;stroke-dasharray:none;stroke-dashoffset:0;stroke-opacity:1;color-rendering:auto;image-rendering:auto;shape-rendering:auto;text-rendering:auto;enable-background:accumulate;stop-color:#000000"
       d="m 26.379042,35.815123 c -2.448475,-10e-7 -4.436422,1.987429 -4.436422,4.435904 0,1.224238 0.496501,2.334633 1.299147,3.137276 l 0.0016,10e-4 0.0016,0.0016 c 0.192852,0.180641 0.403928,0.37543 0.653706,0.538985 0.326548,0.522407 0.460682,1.343823 0.561723,1.885673 -0.374962,0.05077 -0.666628,0.370089 -0.666628,0.75861 0,0.423587 0.345361,0.768429 0.768945,0.768429 h 0.0894 v 0.187069 c 0,0.380758 0.310674,0.69143 0.691433,0.69143 h 1.780771 c 0.380754,0 0.69143,-0.310672 0.69143,-0.69143 V 47.3426 h 0.150379 c 0.423584,0 0.768945,-0.344842 0.768945,-0.768429 0,-0.406053 -0.318381,-0.73681 -0.717786,-0.763777 0.203079,-1.461504 0.652341,-1.787964 0.715201,-1.822111 l 0.0021,-0.001 0.0016,-10e-4 c 0.334539,-0.196627 0.484164,-0.294851 0.78083,-0.599447 0.801873,-0.802542 1.298112,-1.912155 1.298112,-3.135726 0,-2.448474 -1.987428,-4.435904 -4.435903,-4.435904 z m 0,0.264583 c 2.305484,0 4.171321,1.865838 4.171321,4.171321 0,1.152742 -0.466569,2.194627 -1.221629,2.949691 l -5.29e-4,10e-4 -0.0011,5.29e-4 c -0.286581,0.294238 -0.392901,0.360833 -0.725022,0.556039 -0.176381,0.09775 -0.634531,0.524465 -0.843359,2.017964 -0.248851,0.0098 -0.463867,0.01441 -0.672827,0.01757 v -2.855134 h 0.625803 5.29e-4 c 0.307067,-0.0013 0.540036,-0.105045 0.68213,-0.271819 0.142092,-0.166773 0.188222,-0.384463 0.164846,-0.591695 -0.04631,-0.410536 -0.366395,-0.819563 -0.835091,-0.826823 -0.0079,-0.0013 -0.217019,-0.03671 -0.441833,0.05736 -0.229018,0.09583 -0.459637,0.350326 -0.460955,0.824239 v 5.29e-4 0.543637 h -0.787032 v -0.535885 -0.0031 c -0.02461,-0.535311 -0.280807,-0.796799 -0.532265,-0.879016 -0.247435,-0.0809 -0.469177,-0.01354 -0.476459,-0.01137 -0.201419,0.02996 -0.366014,0.149305 -0.475422,0.304891 -0.111675,0.158807 -0.17296,0.354049 -0.1788,0.550871 -0.0058,0.196822 0.04476,0.398711 0.172599,0.558105 0.127844,0.159395 0.334139,0.267178 0.597897,0.279569 l 0.0031,5.3e-4 h 0.624766 v 2.85874 c -0.320702,-0.0018 -0.608521,-0.0054 -1.048515,-5.29e-4 -0.166767,-0.698252 -0.218546,-1.53231 -0.674894,-2.086695 l -5.29e-4,-5.29e-4 -0.0011,-5.29e-4 c -0.225695,-0.147564 -0.424866,-0.329525 -0.615982,-0.508496 -0.755063,-0.755063 -1.221632,-1.796949 -1.221632,-2.949691 0,-2.305484 1.866355,-4.171322 4.171839,-4.171321 z m -1.183907,5.403804 c 0.06215,-0.0044 0.144219,-0.0021 0.224793,0.02429 0.160795,0.05258 0.32793,0.175869 0.349848,0.637171 v 0.529166 H 25.15431 c -0.201742,-0.0095 -0.32312,-0.08105 -0.403593,-0.181384 -0.08047,-0.100333 -0.119044,-0.238823 -0.11472,-0.384473 0.0043,-0.145649 0.05248,-0.294881 0.130741,-0.406176 0.135805,-0.162608 0.262612,-0.193182 0.428397,-0.218592 z m 2.398821,0.02222 c 0.359947,-0.0028 0.662813,0.312815 0.7023,0.598941 0.01683,0.149275 -0.0163,0.289106 -0.102836,0.390674 -0.08646,0.101471 -0.231336,0.177572 -0.481624,0.1788 h -0.625803 v -0.543119 -5.29e-4 c 0.0013,-0.396834 0.149376,-0.518363 0.298691,-0.580843 0.0747,-0.03126 0.151355,-0.04153 0.209291,-0.04393 z m -1.559597,1.432988 h 0.787032 v 2.857706 c -0.248605,0.0015 -0.531325,0.0027 -0.787032,10e-4 z m -1.471745,3.131074 h 3.403412 c 0.281583,0 0.504362,0.222779 0.504362,0.504362 0,0.281584 -0.222779,0.503846 -0.504362,0.503846 h -3.403412 c -0.281582,0 -0.504362,-0.222262 -0.504362,-0.503846 0,-0.281583 0.22278,-0.504362 0.504362,-0.504362 z m 0.353984,1.272791 h 2.634467 v 0.187069 c 0,0.238755 -0.188095,0.426847 -0.426847,0.426847 h -1.780771 c -0.238757,0 -0.426839,-0.188092 -0.426849,-0.426847 z" />
    <g
       aria-label="SMART"
       id="text892"
       style="font-style:normal;font-weight:normal;font-size:33.1621px;line-height:1.25;font-family:sans-serif;fill:#ffffff;fill-opacity:1;stroke:none;stroke-width:0.829052"
       transform="matrix(0.25678135,0,0,0.2817962,-112.40895,25.695279)">
      <path
         d="m 584.03605,49.079629 v -7.196177 h -0.99486 c -0.2653,0.895377 -0.46427,1.127512 -1.06119,1.127512 -0.29846,0 -0.6964,-0.09949 -1.39281,-0.331621 -1.52545,-0.563756 -2.58664,-0.762728 -3.87996,-0.762728 -4.51005,0 -7.2625,2.553481 -7.2625,6.765068 0,2.885103 1.72443,4.974316 5.67072,6.864555 l 2.22186,1.061188 c 2.91826,1.392808 3.71415,2.255023 3.71415,4.012614 0,2.288185 -1.62494,3.747317 -4.17842,3.747317 -1.95657,0 -3.58151,-0.829052 -4.84167,-2.453995 -0.89537,-1.226998 -1.35964,-2.321347 -1.9234,-4.642694 h -0.9617 v 8.191039 h 0.9617 c 0.19897,-0.862215 0.46427,-1.127512 0.99486,-1.127512 0.2653,0 0.63008,0.09949 1.35965,0.331621 1.62494,0.563756 2.85194,0.795891 4.31107,0.795891 4.90799,0 8.2242,-2.818779 8.2242,-6.997204 0,-2.487157 -1.49229,-4.974315 -3.64783,-6.035502 l -4.87483,-2.420834 c -2.68613,-1.326484 -3.41569,-2.155536 -3.41569,-3.747317 0,-2.05605 1.39281,-3.31621 3.64783,-3.31621 1.49229,0 2.8851,0.63008 4.07894,1.857077 1.12751,1.160674 1.6581,2.122375 2.32134,4.277912 z"
         style="font-style:normal;font-variant:normal;font-weight:bold;font-stretch:normal;font-family:'Nimbus Roman';-inkscape-font-specification:'Nimbus Roman, Bold';fill:#ffffff;stroke-width:0.829052"
         id="path894" />
      <path
         d="m 616.96601,64.002574 c -2.52032,-0.298459 -2.85194,-0.63008 -2.91826,-3.050913 V 46.294012 c 0.0663,-2.453996 0.53059,-2.918265 2.91826,-3.050913 v -0.829053 h -8.35685 l -6.63242,15.652512 -6.63242,-15.652512 h -8.39001 v 0.829053 c 2.38767,0.16581 2.95143,0.63008 2.95143,2.354509 v 15.751998 c -0.0332,2.022888 -0.46427,2.420834 -3.01775,2.652968 v 0.829053 h 7.75993 v -0.829053 c -2.68613,-0.16581 -3.31621,-0.829052 -3.34938,-3.283048 V 45.133338 l 8.35685,19.698289 h 0.89538 l 8.35685,-20.19572 v 16.87951 c -0.0663,1.89024 -0.49743,2.288185 -2.95143,2.487157 v 0.829053 h 11.00982 z"
         style="font-style:normal;font-variant:normal;font-weight:bold;font-stretch:normal;font-family:'Nimbus Roman';-inkscape-font-specification:'Nimbus Roman, Bold';fill:#ffffff;stroke-width:0.829052"
         id="path896" />
      <path
         d="m 641.17428,64.002574 c -1.45913,0 -1.82392,-0.464269 -3.61467,-4.609532 l -7.39515,-17.443265 h -0.92854 l -7.36198,18.172831 c -1.26016,3.117238 -1.65811,3.581507 -3.24989,3.879966 v 0.829053 h 6.73191 v -0.829053 c -1.98973,-0.132648 -2.71929,-0.497431 -2.71929,-1.359646 0,-0.431107 0.23213,-1.226998 0.9617,-3.017751 l 0.49743,-1.326484 h 7.46147 c 1.12751,2.619806 1.52546,3.780479 1.52546,4.510046 0,0.729566 -0.43111,1.028025 -1.59178,1.094349 -0.16581,0.03316 -0.59692,0.06632 -1.06119,0.09949 v 0.829053 h 10.74452 z m -16.58105,-6.997203 3.11724,-8.058391 3.34937,8.058391 z"
         style="font-style:normal;font-variant:normal;font-weight:bold;font-stretch:normal;font-family:'Nimbus Roman';-inkscape-font-specification:'Nimbus Roman, Bold';fill:#ffffff;stroke-width:0.829052"
         id="path898" />
      <path
         d="m 665.97947,64.002574 c -0.59692,0 -1.02802,-0.16581 -1.35964,-0.63008 -4.21227,-2.178863 -2.43932,-7.305219 -6.66559,-9.451199 1.92075,-0.715768 2.78562,-1.028025 3.71416,-1.890239 0.9617,-0.895377 1.49229,-2.221861 1.49229,-3.714156 0,-3.846804 -3.28304,-5.902854 -9.35171,-5.902854 h -10.6782 v 0.829053 c 2.38768,0.132648 2.85195,0.596917 2.91827,3.050913 v 14.657649 c -0.0663,2.453996 -0.36478,2.785617 -2.91827,3.050913 v 0.829053 h 11.20879 v -0.829053 c -2.52031,-0.298459 -2.85194,-0.663242 -2.91826,-3.050913 v -6.499772 h 0.89538 c 4.51779,2.716155 2.24685,6.761756 6.86455,10.379738 h 6.79823 z M 651.42131,44.934366 c 0,-0.198973 0.13265,-0.696404 0.23213,-0.895377 0.19898,-0.331621 0.72957,-0.497431 1.55862,-0.497431 3.05092,0 4.27791,1.42597 4.27791,4.907991 0,2.122374 -0.49743,3.415696 -1.55861,4.1121 -0.86222,0.563756 -1.98973,0.795891 -4.51005,0.829053 z"
         style="font-style:normal;font-variant:normal;font-weight:bold;font-stretch:normal;font-family:'Nimbus Roman';-inkscape-font-specification:'Nimbus Roman, Bold';fill:#ffffff;stroke-width:0.829052"
         id="path900" />
      <path
         d="m 682.32831,64.002574 c -2.81878,-0.132648 -3.18356,-0.497431 -3.24988,-3.050913 V 43.475233 c 4.07894,0.132649 5.80336,1.658105 6.36712,5.604396 h 0.9617 l -0.0663,-6.665583 h -19.89726 l -0.0995,6.665583 h 0.9617 c 0.56376,-3.946291 2.28819,-5.471747 6.40029,-5.604396 v 17.476428 c -0.0663,2.52032 -0.43111,2.851941 -3.21673,3.050913 v 0.829053 h 11.83887 z"
         style="font-style:normal;font-variant:normal;font-weight:bold;font-stretch:normal;font-family:'Nimbus Roman';-inkscape-font-specification:'Nimbus Roman, Bold';fill:#ffffff;stroke-width:0.829052"
         id="path902" />
    </g>
    <g
       aria-label="essay writing service"
       id="text907"
       style="font-style:normal;font-weight:normal;font-size:10.7958px;line-height:1.25;font-family:sans-serif;fill:#ffffff;fill-opacity:1;stroke:none;stroke-width:0.269896"
       transform="matrix(0.26458333,0,0,0.26458333,-117.48298,26.416213)">
      <path
         d="m 575.53038,76.573347 v 0.474424 h -4.45959 q 0.0633,1.001564 0.60093,1.528703 0.54296,0.521867 1.50762,0.521867 0.55877,0 1.08063,-0.137056 0.52714,-0.137056 1.04374,-0.411168 v 0.917221 q -0.52187,0.221398 -1.07009,0.337369 -0.54823,0.11597 -1.11226,0.11597 -1.41274,0 -2.24034,-0.822336 -0.82234,-0.822336 -0.82234,-2.224525 0,-1.449632 0.78016,-2.298325 0.78544,-0.853965 2.11383,-0.853965 1.19133,0 1.88189,0.769623 0.69582,0.764351 0.69582,2.082198 z m -0.96994,-0.284655 q -0.0105,-0.79598 -0.44806,-1.270405 -0.43226,-0.474424 -1.14917,-0.474424 -0.81179,0 -1.30203,0.45861 -0.48497,0.458611 -0.55877,1.29149 z"
         style="fill:#ffffff;stroke-width:0.269896"
         id="path909" />
      <path
         d="m 580.88611,74.03781 v 0.917221 q -0.41117,-0.210856 -0.85397,-0.316283 -0.44279,-0.105428 -0.91722,-0.105428 -0.72218,0 -1.0859,0.221398 -0.35846,0.221398 -0.35846,0.664195 0,0.337369 0.2583,0.53241 0.2583,0.18977 1.03846,0.363726 l 0.3321,0.0738 q 1.03319,0.221398 1.46545,0.627295 0.43752,0.400625 0.43752,1.122805 0,0.822337 -0.65365,1.302033 -0.64838,0.479696 -1.787,0.479696 -0.47443,0 -0.99102,-0.09488 -0.51133,-0.08961 -1.08064,-0.274112 v -1.001563 q 0.53769,0.279383 1.05955,0.421711 0.52187,0.137056 1.03319,0.137056 0.68528,0 1.05428,-0.231941 0.369,-0.237213 0.369,-0.664195 0,-0.395354 -0.26884,-0.60621 -0.26357,-0.210855 -1.16498,-0.405896 l -0.33737,-0.07907 q -0.9014,-0.18977 -1.30203,-0.579853 -0.40063,-0.395354 -0.40063,-1.080634 0,-0.832879 0.5904,-1.286218 0.5904,-0.45334 1.6763,-0.45334 0.53768,0 1.01211,0.07907 0.47442,0.07907 0.87505,0.237213 z"
         style="fill:#ffffff;stroke-width:0.269896"
         id="path911" />
      <path
         d="m 586.51068,74.03781 v 0.917221 q -0.41117,-0.210856 -0.85397,-0.316283 -0.44279,-0.105428 -0.91722,-0.105428 -0.72218,0 -1.0859,0.221398 -0.35846,0.221398 -0.35846,0.664195 0,0.337369 0.2583,0.53241 0.2583,0.18977 1.03846,0.363726 l 0.3321,0.0738 q 1.03319,0.221398 1.46545,0.627295 0.43752,0.400625 0.43752,1.122805 0,0.822337 -0.65365,1.302033 -0.64838,0.479696 -1.787,0.479696 -0.47443,0 -0.99102,-0.09488 -0.51133,-0.08961 -1.08064,-0.274112 v -1.001563 q 0.53769,0.279383 1.05955,0.421711 0.52187,0.137056 1.03319,0.137056 0.68529,0 1.05428,-0.231941 0.369,-0.237213 0.369,-0.664195 0,-0.395354 -0.26884,-0.60621 -0.26357,-0.210855 -1.16498,-0.405896 l -0.33737,-0.07907 q -0.9014,-0.18977 -1.30203,-0.579853 -0.40062,-0.395354 -0.40062,-1.080634 0,-0.832879 0.59039,-1.286218 0.5904,-0.45334 1.6763,-0.45334 0.53768,0 1.01211,0.07907 0.47442,0.07907 0.87505,0.237213 z"
         style="fill:#ffffff;stroke-width:0.269896"
         id="path913" />
      <path
         d="m 591.05461,76.800016 q -1.17552,0 -1.62886,0.268841 -0.45333,0.268841 -0.45333,0.917221 0,0.516596 0.33736,0.822337 0.34264,0.300469 0.92777,0.300469 0.80652,0 1.29149,-0.56931 0.49024,-0.574581 0.49024,-1.523431 v -0.216127 z m 1.9346,-0.400625 v 3.368416 h -0.96993 v -0.896136 q -0.3321,0.537682 -0.82761,0.79598 -0.49551,0.253026 -1.21242,0.253026 -0.90668,0 -1.44436,-0.506053 -0.53241,-0.511324 -0.53241,-1.365289 0,-0.996292 0.66419,-1.502345 0.66947,-0.506053 1.99259,-0.506053 h 1.36002 v -0.09489 q 0,-0.669467 -0.4428,-1.033192 -0.43752,-0.368997 -1.2335,-0.368997 -0.50606,0 -0.98575,0.121242 -0.4797,0.121241 -0.9225,0.363725 v -0.896136 q 0.53241,-0.205584 1.0332,-0.30574 0.50078,-0.105428 0.9752,-0.105428 1.28095,0 1.91352,0.664195 0.63256,0.664195 0.63256,2.01367 z"
         style="fill:#ffffff;stroke-width:0.269896"
         id="path915" />
      <path
         d="m 597.44353,80.316031 q -0.41116,1.054278 -0.80125,1.375832 -0.39008,0.321555 -1.04373,0.321555 h -0.7749 v -0.811794 h 0.56931 q 0.40063,0 0.62203,-0.18977 0.2214,-0.18977 0.49024,-0.896135 l 0.17395,-0.442797 -2.38794,-5.809068 h 1.02793 l 1.84498,4.617735 1.84499,-4.617735 h 1.02792 z"
         style="fill:#ffffff;stroke-width:0.269896"
         id="path917" />
      <path
         d="m 604.24362,73.863854 h 0.96994 l 1.21242,4.607192 1.20714,-4.607192 h 1.1439 l 1.21241,4.607192 1.20715,-4.607192 h 0.96994 l -1.54452,5.903953 h -1.14389 l -1.2704,-4.839133 -1.27568,4.839133 h -1.14389 z"
         style="fill:#ffffff;stroke-width:0.269896"
         id="path919" />
      <path
         d="m 617.05837,74.770532 q -0.16342,-0.09489 -0.35846,-0.137056 -0.18977,-0.04744 -0.42171,-0.04744 -0.82234,0 -1.26513,0.537681 -0.43753,0.53241 -0.43753,1.533974 v 3.110118 h -0.9752 v -5.903953 h 0.9752 v 0.917221 q 0.30574,-0.537681 0.79598,-0.795979 0.49024,-0.26357 1.19134,-0.26357 0.10015,0 0.22139,0.01581 0.12125,0.01054 0.26884,0.0369 z"
         style="fill:#ffffff;stroke-width:0.269896"
         id="path921" />
      <path
         d="m 618.07574,73.863854 h 0.96994 v 5.903953 h -0.96994 z m 0,-2.298325 h 0.96994 v 1.228233 h -0.96994 z"
         style="fill:#ffffff;stroke-width:0.269896"
         id="path923" />
      <path
         d="m 622.03456,72.187553 v 1.676301 h 1.99785 v 0.753808 h -1.99785 v 3.205003 q 0,0.72218 0.19504,0.927764 0.20031,0.205584 0.80652,0.205584 h 0.99629 v 0.811794 h -0.99629 q -1.12281,0 -1.54979,-0.41644 -0.42698,-0.42171 -0.42698,-1.528702 v -3.205003 h -0.71164 v -0.753808 h 0.71164 v -1.676301 z"
         style="fill:#ffffff;stroke-width:0.269896"
         id="path925" />
      <path
         d="m 625.30808,73.863854 h 0.96994 v 5.903953 h -0.96994 z m 0,-2.298325 h 0.96994 v 1.228233 h -0.96994 z"
         style="fill:#ffffff;stroke-width:0.269896"
         id="path927" />
      <path
         d="m 633.21517,76.20435 v 3.563457 h -0.96994 v -3.531829 q 0,-0.838151 -0.32683,-1.25459 -0.32682,-0.41644 -0.98047,-0.41644 -0.78544,0 -1.23878,0.500782 -0.45334,0.500782 -0.45334,1.365289 v 3.336788 h -0.97521 v -5.903953 h 0.97521 v 0.917221 q 0.34791,-0.53241 0.81707,-0.795979 0.47442,-0.26357 1.09117,-0.26357 1.01738,0 1.53925,0.632567 0.52187,0.627295 0.52187,1.850257 z"
         style="fill:#ffffff;stroke-width:0.269896"
         id="path929" />
      <path
         d="m 639.03477,76.747302 q 0,-1.054277 -0.43752,-1.63413 -0.43225,-0.579852 -1.21769,-0.579852 -0.78017,0 -1.21769,0.579852 -0.43225,0.579853 -0.43225,1.63413 0,1.049006 0.43225,1.628859 0.43752,0.579852 1.21769,0.579852 0.78544,0 1.21769,-0.579852 0.43752,-0.579853 0.43752,-1.628859 z m 0.96994,2.287782 q 0,1.507617 -0.66947,2.24034 -0.66946,0.737994 -2.05057,0.737994 -0.51132,0 -0.96466,-0.07907 -0.45334,-0.0738 -0.88032,-0.231941 v -0.943578 q 0.42698,0.231941 0.84342,0.34264 0.41644,0.110699 0.84869,0.110699 0.95413,0 1.42855,-0.500782 0.47442,-0.49551 0.47442,-1.502345 v -0.479696 q -0.30046,0.521867 -0.76962,0.780165 -0.46915,0.258298 -1.1228,0.258298 -1.08591,0 -1.7501,-0.827608 -0.6642,-0.827607 -0.6642,-2.192897 0,-1.37056 0.6642,-2.198168 0.66419,-0.827608 1.7501,-0.827608 0.65365,0 1.1228,0.258298 0.46916,0.258298 0.76962,0.780166 v -0.896136 h 0.96994 z"
         style="fill:#ffffff;stroke-width:0.269896"
         id="path931" />
      <path
         d="m 649.19801,74.03781 v 0.917221 q -0.41117,-0.210856 -0.85396,-0.316283 -0.4428,-0.105428 -0.91723,-0.105428 -0.72218,0 -1.0859,0.221398 -0.35846,0.221398 -0.35846,0.664195 0,0.337369 0.2583,0.53241 0.2583,0.18977 1.03847,0.363726 l 0.33209,0.0738 q 1.03319,0.221398 1.46545,0.627295 0.43752,0.400625 0.43752,1.122805 0,0.822337 -0.65365,1.302033 -0.64838,0.479696 -1.787,0.479696 -0.47442,0 -0.99102,-0.09488 -0.51132,-0.08961 -1.08063,-0.274112 v -1.001563 q 0.53768,0.279383 1.05955,0.421711 0.52186,0.137056 1.03319,0.137056 0.68528,0 1.05427,-0.231941 0.369,-0.237213 0.369,-0.664195 0,-0.395354 -0.26884,-0.60621 -0.26357,-0.210855 -1.16498,-0.405896 l -0.33736,-0.07907 q -0.90141,-0.18977 -1.30204,-0.579853 -0.40062,-0.395354 -0.40062,-1.080634 0,-0.832879 0.59039,-1.286218 0.5904,-0.45334 1.6763,-0.45334 0.53769,0 1.01211,0.07907 0.47442,0.07907 0.87505,0.237213 z"
         style="fill:#ffffff;stroke-width:0.269896"
         id="path933" />
      <path
         d="m 656.10879,76.573347 v 0.474424 h -4.45959 q 0.0633,1.001564 0.60094,1.528703 0.54295,0.521867 1.50762,0.521867 0.55876,0 1.08063,-0.137056 0.52714,-0.137056 1.04373,-0.411168 v 0.917221 q -0.52186,0.221398 -1.07009,0.337369 -0.54822,0.11597 -1.11226,0.11597 -1.41273,0 -2.24034,-0.822336 -0.82234,-0.822336 -0.82234,-2.224525 0,-1.449632 0.78017,-2.298325 0.78544,-0.853965 2.11383,-0.853965 1.19133,0 1.88188,0.769623 0.69582,0.764351 0.69582,2.082198 z m -0.96993,-0.284655 q -0.0105,-0.79598 -0.44807,-1.270405 -0.43225,-0.474424 -1.14916,-0.474424 -0.8118,0 -1.30203,0.45861 -0.48497,0.458611 -0.55877,1.29149 z"
         style="fill:#ffffff;stroke-width:0.269896"
         id="path935" />
      <path
         d="m 661.12189,74.770532 q -0.16342,-0.09489 -0.35846,-0.137056 -0.18977,-0.04744 -0.42171,-0.04744 -0.82233,0 -1.26513,0.537681 -0.43753,0.53241 -0.43753,1.533974 v 3.110118 h -0.9752 v -5.903953 h 0.9752 v 0.917221 q 0.30575,-0.537681 0.79598,-0.795979 0.49024,-0.26357 1.19134,-0.26357 0.10015,0 0.2214,0.01581 0.12124,0.01054 0.26884,0.0369 z"
         style="fill:#ffffff;stroke-width:0.269896"
         id="path937" />
      <path
         d="m 661.44344,73.863854 h 1.02792 l 1.84499,4.955103 1.84498,-4.955103 h 1.02792 l -2.21398,5.903953 h -1.31785 z"
         style="fill:#ffffff;stroke-width:0.269896"
         id="path939" />
      <path
         d="m 668.52818,73.863854 h 0.96994 v 5.903953 h -0.96994 z m 0,-2.298325 h 0.96994 v 1.228233 h -0.96994 z"
         style="fill:#ffffff;stroke-width:0.269896"
         id="path941" />
      <path
         d="m 675.77634,74.090523 v 0.906679 q -0.41117,-0.22667 -0.82761,-0.337369 -0.41117,-0.11597 -0.83288,-0.11597 -0.94358,0 -1.46544,0.600938 -0.52187,0.595666 -0.52187,1.676301 0,1.080634 0.52187,1.681572 0.52186,0.595667 1.46544,0.595667 0.42171,0 0.83288,-0.110699 0.41644,-0.115971 0.82761,-0.34264 v 0.896135 q -0.4059,0.18977 -0.84342,0.284655 -0.43226,0.09488 -0.9225,0.09488 -1.33366,0 -2.11909,-0.83815 -0.78544,-0.838151 -0.78544,-2.261425 0,-1.44436 0.79071,-2.271968 0.79598,-0.827608 2.17708,-0.827608 0.44807,0 0.87505,0.09489 0.42698,0.08961 0.82761,0.274112 z"
         style="fill:#ffffff;stroke-width:0.269896"
         id="path943" />
      <path
         d="m 682.51317,76.573347 v 0.474424 h -4.45959 q 0.0633,1.001564 0.60094,1.528703 0.54295,0.521867 1.50762,0.521867 0.55876,0 1.08063,-0.137056 0.52714,-0.137056 1.04374,-0.411168 v 0.917221 q -0.52187,0.221398 -1.0701,0.337369 -0.54822,0.11597 -1.11226,0.11597 -1.41273,0 -2.24034,-0.822336 -0.82233,-0.822336 -0.82233,-2.224525 0,-1.449632 0.78016,-2.298325 0.78544,-0.853965 2.11383,-0.853965 1.19133,0 1.88188,0.769623 0.69582,0.764351 0.69582,2.082198 z m -0.96993,-0.284655 q -0.0105,-0.79598 -0.44807,-1.270405 -0.43225,-0.474424 -1.14916,-0.474424 -0.81179,0 -1.30203,0.45861 -0.48497,0.458611 -0.55877,1.29149 z"
         style="fill:#ffffff;stroke-width:0.269896"
         id="path945" />
    </g>
  </g>
</svg>
