<?xml version="1.0" encoding="UTF-8"?>
<svg width="33.173" height="27.769" version="1.1" viewBox="0 0 33.173 27.769" xmlns="http://www.w3.org/2000/svg" xmlns:cc="http://creativecommons.org/ns#" xmlns:dc="http://purl.org/dc/elements/1.1/" xmlns:rdf="http://www.w3.org/1999/02/22-rdf-syntax-ns#">
 <path d="m29.335 0.0065838c-0.20599-0.02176-0.39975 0.0089-0.55265 0.11473-15.16 10.256-9.7346 22.419-8.7683 24.094 1.2169 2.1811 3.7607 3.5035 6.2583 3.5076 3.8111 1.7e-5 6.9005-3.0894 6.9005-6.9005 1.8e-5 -3.8111-3.0894-6.9005-6.9005-6.9005-1.5658 3.31e-4 -3.0849 0.53318-4.3079 1.511-0.23089-0.91944-1.7199-8.1668 7.3202-13.744 0.96843-0.61163 0.67063-1.6176 0.05037-1.6831zm-18.282 0.04617c-0.20599-0.02176-0.39975 0.0089-0.55265 0.11473-15.16 10.256-9.7346 22.421-8.7683 24.096 1.2169 2.1811 3.7607 3.5021 6.2583 3.5062 3.8111 1.7e-5 6.9005-3.0894 6.9005-6.9005 1.8e-5 -3.8111-3.0894-6.9005-6.9005-6.9005-1.5658 3.32e-4 -3.0849 0.53318-4.3079 1.5111-0.23089-0.91944-1.7199-8.1668 7.3202-13.744 0.96843-0.61163 0.67063-1.6176 0.05037-1.6831z" fill="#e9e9e9" fill-opacity=".54118" stroke-width=".71635"/>
</svg>
